<svg width="9" height="9" viewBox="0 0 9 9" fill="none" xmlns="http://www.w3.org/2000/svg">
<path d="M0.612534 0.837433C0.612534 0.615332 0.700784 0.402328 0.85787 0.245278C1.01496 0.0882292 1.22801 0 1.45016 0H8.16237C8.38452 0 8.59758 0.0882292 8.75466 0.245278C8.91175 0.402328 9 0.615332 9 0.837433V7.54806C9 7.77017 8.91175 7.98317 8.75466 8.14022C8.59758 8.29727 8.38452 8.3855 8.16237 8.3855C7.94022 8.3855 7.72716 8.29727 7.57008 8.14022C7.41299 7.98317 7.32474 7.77017 7.32474 7.54806V2.85844L1.45016 8.73275C1.34778 8.84299 1.21755 8.92357 1.0732 8.96602C0.928854 9.00846 0.775725 9.0112 0.629951 8.97393C0.484176 8.93667 0.351154 8.86079 0.244898 8.75428C0.138642 8.64777 0.0630872 8.51458 0.0261934 8.36875C-0.0111277 8.22317 -0.00852395 8.07023 0.0337306 7.92601C0.0759851 7.78179 0.156329 7.65162 0.266314 7.54918L6.14089 1.67487H1.45016C1.22801 1.67487 1.01496 1.58664 0.85787 1.42959C0.700784 1.27254 0.612534 1.05953 0.612534 0.837433Z" fill="#222222"/>
</svg>
