<svg width="27" height="24" viewBox="0 0 27 24" fill="none" xmlns="http://www.w3.org/2000/svg">
<path d="M13.635 20.3379L13.5 20.4687L13.3515 20.3379C6.939 14.7008 2.7 10.9733 2.7 7.19346C2.7 4.57766 4.725 2.6158 7.425 2.6158C9.504 2.6158 11.529 3.92371 12.2445 5.70245H14.7555C15.471 3.92371 17.496 2.6158 19.575 2.6158C22.275 2.6158 24.3 4.57766 24.3 7.19346C24.3 10.9733 20.061 14.7008 13.635 20.3379ZM19.575 0C17.226 0 14.9715 1.0594 13.5 2.72044C12.0285 1.0594 9.774 0 7.425 0C3.267 0 0 3.15204 0 7.19346C0 12.1243 4.59 16.1657 11.5425 22.2736L13.5 24L15.4575 22.2736C22.41 16.1657 27 12.1243 27 7.19346C27 3.15204 23.733 0 19.575 0Z" fill="#6B6B6B"/>
</svg>
