<svg width="36" height="36" viewBox="0 0 36 36" fill="none" xmlns="http://www.w3.org/2000/svg">
<path d="M18.1993 12.0086C14.9486 12.0086 12.3279 14.7086 12.3279 18C12.3279 21.2914 14.9738 23.9914 18.1993 23.9914C21.4247 23.9914 24.0706 21.2914 24.0706 18C24.0706 14.7086 21.4247 12.0086 18.1993 12.0086ZM35.8385 18C35.8385 15.5057 35.8385 13.0629 35.7125 10.5686C35.5865 7.68857 34.9313 5.11714 32.865 3.03429C30.7987 0.925714 28.304 0.257143 25.4817 0.128571C23.0375 -1.24531e-07 20.6436 0 18.1993 0C15.755 0 13.3611 -1.24531e-07 10.9168 0.128571C8.09452 0.257143 5.57463 0.925714 3.53353 3.03429C1.46722 5.14286 0.812047 7.68857 0.686053 10.5686C0.560058 13.0629 0.560059 15.5057 0.560059 18C0.560059 20.4943 0.560058 22.9371 0.686053 25.4314C0.812047 28.3114 1.46722 30.8829 3.53353 32.9657C5.59983 35.0743 8.09452 35.7429 10.9168 35.8714C13.3611 36 15.755 36 18.1993 36C20.6436 36 23.0375 36 25.4817 35.8714C28.304 35.7429 30.8239 35.0743 32.865 32.9657C34.9313 30.8571 35.5865 28.3114 35.7125 25.4314C35.8637 22.9629 35.8385 20.4943 35.8385 18ZM18.1993 27.2314C13.1847 27.2314 9.15287 23.1171 9.15287 18C9.15287 12.8829 13.1847 8.76857 18.1993 8.76857C23.2138 8.76857 27.2457 12.8829 27.2457 18C27.2457 23.1171 23.2138 27.2314 18.1993 27.2314ZM27.6236 10.5429C26.4645 10.5429 25.5069 9.59143 25.5069 8.38286C25.5069 7.17429 26.4393 6.22286 27.6236 6.22286C28.808 6.22286 29.7404 7.17429 29.7404 8.38286C29.7467 8.66452 29.6963 8.94452 29.5923 9.2055C29.4883 9.46647 29.3328 9.70286 29.1356 9.9C28.9424 10.1013 28.7107 10.2599 28.455 10.3661C28.1993 10.4722 27.9249 10.5237 27.6488 10.5171L27.6236 10.5429Z" fill="#EBEBEB"/>
</svg>
