<svg width="280" height="31" viewBox="0 0 280 31" fill="none" xmlns="http://www.w3.org/2000/svg">
<g clip-path="url(#clip0_33_2630)">
<path d="M71.6867 20.9831C69.4377 19.3428 65.7461 17.1871 62.9719 15.9532C62.9719 20.5984 63.0015 25.7881 63.0754 28.4301L58.4739 28.4591C58.5774 25.6575 58.6292 19.9597 58.6292 14.8789C58.6292 10.8506 58.5996 7.17794 58.5479 5.58838L63.0976 5.63919C63.0458 7.12713 62.9941 10.6474 62.9645 14.6249L65.0803 12.4692C67.8546 13.6741 71.1763 15.4451 74.1577 17.2669L71.6719 20.9904L71.6867 20.9831Z" fill="#EBEBEB"/>
<path d="M82.9318 28.1762L79.9208 24.097C88.5839 23.9664 92.1941 19.5026 93.2151 16.5267C89.553 16.5267 81.652 16.6065 77.3833 16.7299V12.7016C79.8172 12.7524 84.3152 12.7814 88.4285 12.7814C91.802 12.7814 94.9166 12.7524 96.3074 12.6798L98.6896 14.371C96.3074 22.5075 91.9944 26.7971 82.9392 28.1834L82.9318 28.1762ZM87.5112 10.8435C84.4484 10.8435 81.4152 10.8725 79.6101 10.9233V6.99658C81.3634 7.07642 84.2413 7.0982 87.1487 7.0982C90.7071 7.0982 94.3174 7.04739 96.0707 6.99658V10.9233C94.3469 10.8725 90.9143 10.8435 87.5112 10.8435Z" fill="#EBEBEB"/>
<path d="M117.103 17.3179C116.733 23.3278 114.196 26.2746 109.335 28.8223L105.148 25.5851C110.667 23.7633 112.45 21.0414 112.605 17.3179H109.698C106.953 17.3179 104.046 17.347 102.633 17.3687V13.2896C104.253 13.3694 107.656 13.3912 111.37 13.3912C116.733 13.3912 122.755 13.3404 125.16 13.2896V17.3687C123.746 17.3397 120.869 17.3179 117.103 17.3179ZM114.906 11.0758C111.606 11.0758 108.026 11.1049 105.902 11.1557V7.19993C107.811 7.27977 110.741 7.30155 113.67 7.30155C116.26 7.30155 118.849 7.27251 120.654 7.22171V11.1266C119.189 11.0758 117.125 11.0758 114.898 11.0758H114.906ZM122.755 13.2315C122.208 12.2299 121.475 11.0468 120.743 10.0742L122.755 9.05079C123.517 10.0016 124.22 11.0758 124.849 12.1065L122.755 13.2388V13.2315ZM125.004 11.1775C124.427 10.2266 123.695 9.1524 122.94 8.17254L124.93 7.1709C125.663 8.04189 126.499 9.14514 127.076 10.0452L125.012 11.1775H125.004Z" fill="#EBEBEB"/>
<path d="M136.412 18.472C134.74 17.3179 131.574 15.7792 129.554 15.1114L131.907 11.7C133.793 12.317 137.115 13.834 138.787 14.8574L136.405 18.4792L136.412 18.472ZM132.254 27.7916L130.138 23.2987C139.845 22.9648 146.333 18.3704 149.321 11.1557L152.229 14.93C148.434 21.3463 143.751 25.8173 132.262 27.7916H132.254ZM138.949 13.0573C137.381 11.9759 134.111 10.4371 132.173 9.82015L134.525 6.45958C136.515 7.12734 139.808 8.61528 141.406 9.64595L138.942 13.0573H138.949ZM147.953 11.0323C147.169 10.1323 146.229 9.13062 145.334 8.33947L147.087 6.92411C148.005 7.72252 148.922 8.61528 149.758 9.51531L147.953 11.0323ZM150.254 9.10884C149.469 8.31044 148.552 7.38864 147.613 6.56846L149.366 5.18213C150.254 5.9007 151.304 6.80072 152.037 7.59187L150.254 9.10884Z" fill="#EBEBEB"/>
<path d="M176.339 20.7803C176.709 23.3207 177.071 25.8611 177.441 28.1257L173.121 28.4886C172.862 26.2821 172.522 23.7127 172.181 21.0707C168.075 21.3247 164.228 21.6078 162.549 21.8183L162.179 17.7899C163.748 17.7101 167.513 17.4851 171.649 17.2238C171.493 16.1714 171.36 15.1479 171.227 14.1173C168.32 14.3205 165.627 14.502 164.029 14.6326L163.533 10.6043C165.101 10.5244 167.743 10.372 170.68 10.2196C170.443 8.52841 170.236 7.06224 170.08 5.98076L174.342 5.61785C174.445 6.69933 174.63 8.18727 174.837 9.92925C177.767 9.7478 180.541 9.54457 181.924 9.44295L182.45 13.4495C181.118 13.4785 178.344 13.6527 175.362 13.8342C175.496 14.8358 175.651 15.8883 175.784 16.9698C179.631 16.7157 183.219 16.4544 184.81 16.273L185.18 20.3013C183.582 20.3521 180.156 20.5553 176.332 20.7876L176.339 20.7803ZM182.487 9.99458C181.806 9.04375 180.941 7.96953 180.105 7.09128L181.961 5.8356C182.827 6.68481 183.663 7.65742 184.425 8.60825L182.487 9.99458ZM185.024 8.32518C184.314 7.45419 183.478 6.47432 182.59 5.58156L184.447 4.34766C185.283 5.14606 186.252 6.11867 186.933 6.96789L185.024 8.33244V8.32518Z" fill="#EBEBEB"/>
<path d="M202.846 22.8346L199.576 20.7007C201.463 19.2853 202.661 17.8772 203.578 16.3893C202.062 16.5708 200.072 16.8248 198.008 17.1079C198.555 20.9039 199.265 25.1428 199.865 28.1694L196.121 28.7864C195.751 25.7307 195.182 21.4701 194.605 17.5651C192.563 17.8482 190.654 18.1531 189.263 18.4144L188.479 14.8433C189.789 14.7417 191.801 14.5384 194.079 14.3062C193.769 12.4045 193.48 10.7351 193.214 9.58106L196.928 9.04395C197.031 10.198 197.238 11.7876 197.505 13.8997C200.908 13.486 204.333 13.0287 206.116 12.7457L208.417 14.3642C207.056 18.0587 205.014 20.962 202.846 22.8346Z" fill="#EBEBEB"/>
<path d="M217.287 28.1762L214.276 24.097C222.939 23.9664 226.549 19.5026 227.57 16.5267C223.908 16.5267 216.007 16.6065 211.739 16.7299V12.7016C214.172 12.7524 218.67 12.7814 222.784 12.7814C226.157 12.7814 229.272 12.7524 230.663 12.6798L233.045 14.371C230.663 22.5075 226.35 26.7971 217.294 28.1834L217.287 28.1762ZM221.866 10.8435C218.804 10.8435 215.77 10.8725 213.965 10.9233V6.99658C215.719 7.07642 218.596 7.0982 221.504 7.0982C225.062 7.0982 228.673 7.04739 230.426 6.99658V10.9233C228.702 10.8725 225.269 10.8435 221.866 10.8435Z" fill="#EBEBEB"/>
<path d="M237.38 19.9818C237.432 17.1873 237.513 14.3058 237.513 11.6638C237.513 9.76214 237.461 7.96935 237.38 6.50318L241.826 6.55399C241.774 7.86047 241.745 9.37745 241.745 10.996C241.745 13.7687 241.797 16.8462 241.878 19.9309L237.38 19.9818ZM253.397 16.7954C253.397 22.3407 251.148 26.8626 243.084 28.9094L239.607 25.0843C246.354 24.0028 249.054 22.2608 249.106 16.868C249.135 15.4816 249.158 13.8122 249.158 12.0195C249.158 10.2267 249.128 8.27419 249.002 6.42334L253.5 6.45237C253.419 9.9944 253.397 14.001 253.397 16.7954Z" fill="#EBEBEB"/>
<path d="M267.705 18.857C263.991 18.857 260.403 18.886 258.021 18.9078V14.6182C260.477 14.669 264.198 14.698 268.045 14.698C272.469 14.698 277.048 14.669 280 14.6182V18.9078C276.967 18.8788 272.232 18.857 267.705 18.857Z" fill="#EBEBEB"/>
<path d="M7.4276 15.1699H2.10104C0.940666 15.1699 0 16.0928 0 17.2313V22.4572C0 23.5957 0.940666 24.5185 2.10104 24.5185H7.4276C8.58797 24.5185 9.52864 23.5957 9.52864 22.4572V17.2313C9.52864 16.0928 8.58797 15.1699 7.4276 15.1699Z" fill="#EBEBEB"/>
<path d="M21.4616 8.23086H24.9535V2.04683C24.9535 0.91454 24.0214 0 22.8673 0H12.732C11.5779 0 10.6458 0.91454 10.6458 2.04683V11.9906C10.6458 13.1229 11.5779 14.0375 12.732 14.0375H19.0277V10.6116C19.0277 9.29056 20.1152 8.2236 21.4616 8.2236V8.23086Z" fill="#EBEBEB"/>
<path d="M39.7938 8.23047H24.9534V11.9975C24.9534 13.1298 24.0212 14.0443 22.8672 14.0443H19.0276V28.6044C19.0276 29.9254 20.1151 30.9924 21.4615 30.9924H39.7938C41.1402 30.9924 42.2278 29.9254 42.2278 28.6044V10.6184C42.2278 9.29743 41.1402 8.23047 39.7938 8.23047Z" fill="#EBEBEB"/>
<path d="M24.7315 8.44822V11.9975C24.7315 13.0064 23.8955 13.8266 22.8672 13.8266H19.2495V10.6184C19.2495 9.42082 20.2409 8.44822 21.4615 8.44822H24.7315ZM24.9534 8.23047H21.4615C20.1151 8.23047 19.0276 9.29743 19.0276 10.6184V14.0443H22.8672C24.0212 14.0443 24.9534 13.1298 24.9534 11.9975V8.23047Z" fill="#EBEBEB"/>
</g>
<defs>
<clipPath id="clip0_33_2630">
<rect width="280" height="31" fill="white"/>
</clipPath>
</defs>
</svg>
