<svg width="306" height="63" viewBox="0 0 306 63" fill="none" xmlns="http://www.w3.org/2000/svg">
<g clip-path="url(#clip0_33_2667)">
<path d="M144.114 42.644C139.593 39.3104 132.171 34.9294 126.594 32.4218C126.594 41.8622 126.654 52.409 126.802 57.7782L117.552 57.8372C117.76 52.1434 117.864 40.5642 117.864 30.2387C117.864 22.0521 117.804 14.5883 117.7 11.3579L126.847 11.4612C126.743 14.485 126.639 21.6391 126.579 29.7225L130.833 25.3415C136.41 27.7901 143.088 31.3893 149.081 35.0917L144.084 42.6588L144.114 42.644Z" fill="#222222"/>
<path d="M166.72 57.2621L160.667 48.9722C178.082 48.7067 185.34 39.6351 187.393 33.5873C180.031 33.5873 164.147 33.7496 155.566 34.0003V25.8137C160.459 25.917 169.501 25.976 177.77 25.976C184.552 25.976 190.813 25.917 193.609 25.7695L198.398 29.2064C193.609 45.7419 184.939 54.4595 166.735 57.2769L166.72 57.2621ZM175.926 22.0376C169.769 22.0376 163.671 22.0966 160.042 22.1998V14.2197C163.567 14.382 169.352 14.4262 175.197 14.4262C182.351 14.4262 189.609 14.323 193.133 14.2197V22.1998C189.668 22.0966 182.767 22.0376 175.926 22.0376Z" fill="#222222"/>
<path d="M235.416 35.1951C234.672 47.4087 229.571 53.3974 219.799 58.5749L211.382 51.9961C222.477 48.2937 226.061 42.7622 226.373 35.1951H220.528C215.011 35.1951 209.166 35.2541 206.325 35.2984V27.0085C209.582 27.1708 216.423 27.215 223.889 27.215C234.672 27.215 246.778 27.1118 251.612 27.0085V35.2984C248.771 35.2394 242.986 35.1951 235.416 35.1951ZM230.998 22.5096C224.365 22.5096 217.167 22.5686 212.899 22.6718V14.6327C216.736 14.795 222.625 14.8392 228.515 14.8392C233.72 14.8392 238.925 14.7802 242.554 14.677V22.6128C239.61 22.5096 235.46 22.5096 230.984 22.5096H230.998ZM246.778 26.8905C245.677 24.8549 244.205 22.4506 242.733 20.474L246.778 18.3941C248.31 20.3265 249.723 22.5096 250.987 24.6042L246.778 26.9053V26.8905ZM251.299 22.7161C250.139 20.7838 248.667 18.6007 247.15 16.6093L251.151 14.5737C252.623 16.3438 254.304 18.5859 255.464 20.415L251.314 22.7161H251.299Z" fill="#222222"/>
<path d="M274.233 37.5404C270.871 35.1951 264.506 32.0679 260.446 30.7109L265.175 23.7781C268.968 25.0319 275.645 28.1147 279.007 30.1946L274.218 37.5552L274.233 37.5404ZM265.874 56.4802L261.621 47.3496C281.133 46.6711 294.176 37.3339 300.185 22.6718L306.03 30.3421C298.4 43.3817 288.986 52.4681 265.889 56.4802H265.874ZM279.334 26.5364C276.181 24.3386 269.607 21.2114 265.711 19.9576L270.44 13.1281C274.441 14.4852 281.059 17.509 284.271 19.6036L279.319 26.5364H279.334ZM297.434 22.421C295.857 20.5919 293.968 18.5563 292.169 16.9485L295.693 14.0721C297.538 15.6947 299.382 17.509 301.062 19.3381L297.434 22.421ZM302.059 18.5121C300.482 16.8895 298.638 15.0162 296.749 13.3494L300.274 10.532C302.059 11.9923 304.171 13.8214 305.643 15.4292L302.059 18.5121Z" fill="#222222"/>
<path d="M14.9319 30.8289H4.22377C1.89104 30.8289 0 32.7044 0 35.018V45.6385C0 47.9521 1.89104 49.8277 4.22377 49.8277H14.9319C17.2646 49.8277 19.1557 47.9521 19.1557 45.6385V35.018C19.1557 32.7044 17.2646 30.8289 14.9319 30.8289Z" fill="#72E14A"/>
<path d="M43.1448 16.7272H50.1646V4.15968C50.1646 1.85858 48.2907 0 45.9706 0H25.5954C23.2753 0 21.4014 1.85858 21.4014 4.15968V24.3681C21.4014 26.6692 23.2753 28.5277 25.5954 28.5277H38.2518V21.5654C38.2518 18.8808 40.4381 16.7125 43.1448 16.7125V16.7272Z" fill="#222222"/>
<path d="M79.9987 16.7273H50.1646V24.3829C50.1646 26.684 48.2907 28.5426 45.9706 28.5426H38.2518V58.1324C38.2518 60.817 40.4381 62.9853 43.1449 62.9853H79.9987C82.7055 62.9853 84.8917 60.817 84.8917 58.1324V21.5803C84.8917 18.8956 82.7055 16.7273 79.9987 16.7273Z" fill="#9F28FB"/>
<path d="M49.7185 17.1698V24.3829C49.7185 26.4332 48.0379 28.1 45.9706 28.1H38.698V21.5803C38.698 19.1464 40.6909 17.1698 43.1449 17.1698H49.7185ZM50.1646 16.7273H43.1449C40.4381 16.7273 38.2518 18.8956 38.2518 21.5803V28.5426H45.9706C48.2907 28.5426 50.1646 26.684 50.1646 24.3829V16.7273Z" fill="#222222"/>
</g>
<defs>
<clipPath id="clip0_33_2667">
<rect width="306" height="63" fill="white"/>
</clipPath>
</defs>
</svg>
