<svg width="610" height="68" viewBox="0 0 610 68" fill="none" xmlns="http://www.w3.org/2000/svg">
<g clip-path="url(#clip0_33_3433)">
<path d="M156.175 46.0285C151.275 42.4303 143.233 37.7017 137.189 34.9951C137.189 45.1847 137.253 56.5685 137.414 62.3638L127.39 62.4275C127.615 56.2819 127.728 43.7836 127.728 32.6387C127.728 23.8024 127.664 15.7462 127.551 12.2594L137.463 12.3708C137.35 15.6347 137.237 23.3566 137.173 32.0815L141.782 27.3528C147.826 29.9958 155.063 33.8806 161.558 37.8768L156.142 46.0445L156.175 46.0285Z" fill="white"/>
<path d="M180.673 61.8066L174.113 52.8588C192.986 52.5722 200.851 42.7806 203.075 36.2528C195.097 36.2528 177.884 36.428 168.585 36.6986V27.8623C173.887 27.9738 183.687 28.0374 192.648 28.0374C199.997 28.0374 206.782 27.9738 209.812 27.8145L215.002 31.5242C209.812 49.372 200.416 58.7815 180.689 61.8225L180.673 61.8066ZM190.649 23.7864C183.977 23.7864 177.369 23.8501 173.436 23.9616V15.3481C177.256 15.5233 183.525 15.571 189.859 15.571C197.612 15.571 205.477 15.4596 209.297 15.3481V23.9616C205.541 23.8501 198.063 23.7864 190.649 23.7864Z" fill="white"/>
<path d="M255.118 37.9882C254.312 51.1711 248.784 57.6352 238.195 63.2235L229.072 56.1226C241.096 52.1264 244.98 46.1559 245.318 37.9882H238.984C233.005 37.9882 226.671 38.0519 223.593 38.0997V29.1519C227.122 29.327 234.536 29.3748 242.627 29.3748C254.312 29.3748 267.431 29.2634 272.669 29.1519V38.0997C269.591 38.036 263.321 37.9882 255.118 37.9882ZM250.331 24.2959C243.143 24.2959 235.342 24.3596 230.716 24.471V15.7939C234.874 15.969 241.257 16.0168 247.639 16.0168C253.28 16.0168 258.921 15.9531 262.854 15.8417V24.4073C259.663 24.2959 255.166 24.2959 250.315 24.2959H250.331ZM267.431 29.0245C266.238 26.8274 264.643 24.2322 263.047 22.0988L267.431 19.8538C269.091 21.9395 270.622 24.2959 271.992 26.5567L267.431 29.0405V29.0245ZM272.331 24.5188C271.074 22.4331 269.478 20.0767 267.834 17.9274L272.169 15.7302C273.765 17.6408 275.586 20.0608 276.843 22.0351L272.347 24.5188H272.331Z" fill="white"/>
<path d="M297.183 40.5198C293.541 37.9883 286.643 34.6129 282.243 33.1482L287.368 25.6652C291.478 27.0185 298.714 30.346 302.357 32.5909L297.167 40.5357L297.183 40.5198ZM288.125 60.9627L283.516 51.1074C304.661 50.3751 318.796 40.2969 325.307 24.4711L331.641 32.7501C323.373 46.8246 313.171 56.6321 288.141 60.9627H288.125ZM302.711 28.6424C299.294 26.2702 292.171 22.8948 287.948 21.5415L293.073 14.17C297.409 15.6347 304.581 18.8986 308.062 21.1594L302.695 28.6424H302.711ZM322.326 24.2004C320.617 22.2261 318.57 20.029 316.62 18.2936L320.44 15.1889C322.439 16.9403 324.437 18.8986 326.258 20.8728L322.326 24.2004ZM327.338 19.9812C325.63 18.2299 323.631 16.2079 321.584 14.4088L325.404 11.3678C327.338 12.944 329.627 14.9183 331.222 16.6537L327.338 19.9812Z" fill="white"/>
<path d="M384.167 45.5828C384.973 51.1552 385.763 56.7277 386.569 61.6951L377.156 62.4912C376.592 57.6511 375.851 52.015 375.109 46.2196C366.164 46.7769 357.783 47.3978 354.125 47.8595L353.319 39.0232C356.736 38.848 364.939 38.3545 373.949 37.7813C373.61 35.4727 373.32 33.2278 373.03 30.967C366.696 31.4128 360.83 31.8108 357.348 32.0974L356.268 23.2611C359.685 23.0859 365.439 22.7516 371.838 22.4172C371.322 18.7076 370.87 15.4914 370.532 13.1192L379.815 12.3231C380.041 14.6954 380.444 17.9592 380.895 21.7804C387.278 21.3823 393.322 20.9365 396.336 20.7136L397.48 29.5022C394.579 29.5659 388.535 29.948 382.04 30.346C382.33 32.5432 382.668 34.8518 382.958 37.2241C391.339 36.6668 399.156 36.0936 402.621 35.6956L403.427 44.5319C399.946 44.6434 392.484 45.0892 384.151 45.5987L384.167 45.5828ZM397.56 21.9237C396.078 19.838 394.192 17.4816 392.371 15.5551L396.416 12.8007C398.302 14.6635 400.123 16.797 401.783 18.8827L397.56 21.9237ZM403.089 18.2618C401.541 16.3512 399.72 14.2018 397.786 12.2435L401.831 9.53687C403.653 11.2882 405.764 13.4217 407.247 15.2845L403.089 18.2777V18.2618Z" fill="white"/>
<path d="M441.915 50.0885L434.791 45.4077C438.901 42.303 441.512 39.2143 443.51 35.9504C440.206 36.3484 435.871 36.9057 431.374 37.5266C432.567 45.8535 434.114 55.1515 435.419 61.7907L427.264 63.144C426.458 56.4412 425.217 47.0953 423.96 38.5297C419.512 39.1506 415.354 39.8193 412.324 40.3925L410.615 32.5592C413.468 32.3363 417.852 31.8905 422.816 31.381C422.139 27.2096 421.51 23.5477 420.93 21.0162L429.021 19.838C429.247 22.3695 429.698 25.8563 430.278 30.4894C437.692 29.5819 445.154 28.5788 449.038 27.9579L454.051 31.5084C451.085 39.6123 446.637 45.9808 441.915 50.0885Z" fill="white"/>
<path d="M473.375 61.8066L466.816 52.8588C485.689 52.5722 493.554 42.7806 495.778 36.2528C487.8 36.2528 470.587 36.428 461.287 36.6986V27.8623C466.59 27.9738 476.389 28.0374 485.35 28.0374C492.7 28.0374 499.485 27.9738 502.515 27.8145L507.705 31.5242C502.515 49.372 493.119 58.7815 473.391 61.8225L473.375 61.8066ZM483.352 23.7864C476.679 23.7864 470.071 23.8501 466.139 23.9616V15.3481C469.958 15.5233 476.228 15.571 482.562 15.571C490.314 15.571 498.18 15.4596 501.999 15.3481V23.9616C498.244 23.8501 490.766 23.7864 483.352 23.7864Z" fill="white"/>
<path d="M517.149 43.8314C517.262 37.7017 517.439 31.3809 517.439 25.5855C517.439 21.4141 517.327 17.4816 517.149 14.2655L526.836 14.3769C526.723 17.2428 526.658 20.5703 526.658 24.1208C526.658 30.2027 526.771 36.9534 526.949 43.7199L517.149 43.8314ZM552.043 36.8419C552.043 49.0058 547.143 58.9248 529.576 63.4146L522.001 55.0241C536.699 52.6518 542.582 48.8307 542.695 37.0011C542.759 33.9602 542.808 30.2982 542.808 26.3657C542.808 22.4331 542.743 18.1503 542.469 14.0903L552.268 14.154C552.091 21.9236 552.043 30.7122 552.043 36.8419Z" fill="white"/>
<path d="M583.213 41.3636C575.122 41.3636 567.306 41.4273 562.116 41.4751V32.0656C567.467 32.177 575.574 32.2407 583.955 32.2407C593.593 32.2407 603.569 32.177 610 32.0656V41.4751C603.392 41.4114 593.077 41.3636 583.213 41.3636Z" fill="white"/>
<path d="M16.1816 33.2756H4.57726C2.04931 33.2756 0 35.3 0 37.7973V49.2606C0 51.7579 2.04931 53.7823 4.57726 53.7823H16.1816C18.7095 53.7823 20.7588 51.7579 20.7588 49.2606V37.7973C20.7588 35.3 18.7095 33.2756 16.1816 33.2756Z" fill="white"/>
<path d="M46.7557 18.0548H54.363V4.48982C54.363 2.00609 52.3322 0 49.818 0H27.7375C25.2233 0 23.1925 2.00609 23.1925 4.48982V26.302C23.1925 28.7858 25.2233 30.7919 27.7375 30.7919H41.4532V23.277C41.4532 20.3793 43.8224 18.0389 46.7557 18.0389V18.0548Z" fill="white"/>
<path d="M86.6938 18.0548H54.3629V26.318C54.3629 28.8017 52.3322 30.8078 49.8179 30.8078H41.4531V62.746C41.4531 65.6437 43.8223 67.9841 46.7557 67.9841H86.6938C89.6271 67.9841 91.9963 65.6437 91.9963 62.746V23.2929C91.9963 20.3952 89.6271 18.0548 86.6938 18.0548Z" fill="white"/>
<path d="M53.8794 18.5324V26.318C53.8794 28.531 52.0582 30.3302 49.8179 30.3302H41.9366V23.2929C41.9366 20.6659 44.0963 18.5324 46.7557 18.5324H53.8794ZM54.3629 18.0548H46.7557C43.8223 18.0548 41.4531 20.3952 41.4531 23.2929V30.8078H49.8179C52.3322 30.8078 54.3629 28.8017 54.3629 26.318V18.0548Z" fill="white"/>
</g>
<defs>
<clipPath id="clip0_33_3433">
<rect width="610" height="68" fill="white"/>
</clipPath>
</defs>
</svg>
