<svg width="32" height="24" viewBox="0 0 32 24" fill="none" xmlns="http://www.w3.org/2000/svg">
<path d="M18.6407 6.49052V9.21722C18.6407 9.99229 18.0106 10.6224 17.2355 10.6224H14.5088V8.15777C14.5088 7.23772 15.256 6.49052 16.1761 6.49052H18.6407ZM18.808 6.32324H16.1761C15.1612 6.32324 14.3416 7.14292 14.3416 8.15777V10.7897H17.2355C18.1054 10.7897 18.808 10.0871 18.808 9.21722V6.32324Z" fill="#222222"/>
<path d="M5.59836 11.6538H1.5836C0.709002 11.6538 0 12.3628 0 13.2374V17.2522C0 18.1268 0.709002 18.8358 1.5836 18.8358H5.59836C6.47296 18.8358 7.18196 18.1268 7.18196 17.2522V13.2374C7.18196 12.3628 6.47296 11.6538 5.59836 11.6538Z" fill="#222222"/>
<path d="M16.1761 6.32325H18.808V1.57245C18.808 0.702583 18.1054 0 17.2356 0H9.59637C8.72651 0 8.02393 0.702583 8.02393 1.57245V9.21165C8.02393 10.0815 8.72651 10.7841 9.59637 10.7841H14.3416V8.1522C14.3416 7.13735 15.1613 6.31767 16.1761 6.31767V6.32325Z" fill="#222222"/>
<path d="M29.9935 6.32324H18.808V9.21722C18.808 10.0871 18.1054 10.7897 17.2355 10.7897H14.3416V21.9752C14.3416 22.9901 15.1612 23.8098 16.1761 23.8098H29.9935C31.0084 23.8098 31.8281 22.9901 31.8281 21.9752V8.15777C31.8281 7.14292 31.0084 6.32324 29.9935 6.32324Z" fill="#222222"/>
</svg>
