<svg width="35" height="35" viewBox="0 0 35 35" fill="none" xmlns="http://www.w3.org/2000/svg">
<path d="M30.8571 0.438477H3.70286C1.65857 0.438477 0 2.09705 0 4.14133V31.2956C0 33.3399 1.65857 34.9985 3.70286 34.9985H30.8571C32.9014 34.9985 34.56 33.3399 34.56 31.2956V4.14133C34.56 2.09705 32.9014 0.438477 30.8571 0.438477ZM27.0849 12.6888C27.1003 12.9048 27.1003 13.1285 27.1003 13.3445C27.1003 20.0328 22.0089 27.7393 12.7054 27.7393C9.83571 27.7393 7.17428 26.9062 4.93714 25.4713C5.346 25.5176 5.73943 25.533 6.156 25.533C8.52429 25.533 10.6997 24.7308 12.4354 23.373C10.2137 23.3268 8.34686 21.8688 7.70657 19.863C8.48571 19.9788 9.18771 19.9788 9.99 19.7705C7.67571 19.2999 5.94 17.2633 5.94 14.8025V14.7408C6.61114 15.1188 7.398 15.3502 8.22343 15.381C7.52947 14.9194 6.96059 14.2932 6.56753 13.5583C6.17448 12.8233 5.96949 12.0025 5.97086 11.169C5.97086 10.2279 6.21771 9.3639 6.65743 8.61562C9.14914 11.6859 12.8906 13.6916 17.0871 13.9076C16.3697 10.4748 18.9386 7.6899 22.0243 7.6899C23.4823 7.6899 24.7937 8.29933 25.7194 9.28676C26.8611 9.07076 27.9566 8.64647 28.9286 8.0679C28.5506 9.24048 27.756 10.2279 26.7069 10.8528C27.7251 10.7448 28.7126 10.4593 29.6229 10.0659C28.9363 11.0765 28.0723 11.9713 27.0849 12.6888Z" fill="#EBEBEB"/>
</svg>
