<svg width="85" height="21" viewBox="0 0 85 21" fill="none" xmlns="http://www.w3.org/2000/svg">
<path d="M75.8144 19.7813V16.8684C76.5713 17.4034 77.3429 17.8393 78.1292 18.1762C78.9254 18.5032 79.5938 18.6667 80.1344 18.6667C80.6947 18.6667 81.1764 18.528 81.5794 18.2505C81.9824 17.9731 82.1839 17.6412 82.1839 17.2548C82.1839 16.8585 82.0512 16.5315 81.7858 16.2739C81.5302 16.0064 80.9699 15.6249 80.1049 15.1295C78.375 14.1585 77.2397 13.3312 76.699 12.6476C76.1683 11.954 75.9029 11.201 75.9029 10.3885C75.9029 9.33829 76.3059 8.48124 77.1119 7.81741C77.9277 7.15357 78.9746 6.82166 80.2524 6.82166C81.5794 6.82166 82.9407 7.19816 84.3365 7.95117V10.6263C82.7441 9.65534 81.4417 9.16985 80.4293 9.16985C79.9084 9.16985 79.4857 9.28379 79.1613 9.51168C78.8468 9.72965 78.6895 10.0219 78.6895 10.3885C78.6895 10.7056 78.832 11.0078 79.1171 11.2951C79.412 11.5824 79.9231 11.9292 80.6505 12.3355L81.6088 12.8853C83.8696 14.1734 85 15.6001 85 17.1656C85 18.2852 84.5626 19.2067 83.6878 19.9299C82.8228 20.6433 81.7071 21 80.3409 21C79.5348 21 78.8173 20.9158 78.1882 20.7473C77.5591 20.569 76.7679 20.247 75.8144 19.7813Z" fill="#EBEBEB"/>
<path d="M70.8161 7.08917H74.0156L68.2212 13.7919L75.1951 20.7622H71.5976L64.8005 13.7919L70.8161 7.08917ZM61.9991 0H64.6826V20.7622H61.9991V0Z" fill="#EBEBEB"/>
<path d="M52.902 7.08917V10.2251L53.0494 9.98726C54.3469 7.87686 55.6444 6.82166 56.9419 6.82166C57.9543 6.82166 59.011 7.33687 60.1119 8.3673L58.6964 10.7452C57.7626 9.8535 56.8977 9.40764 56.1015 9.40764C55.2365 9.40764 54.4845 9.82378 53.8456 10.6561C53.2165 11.4883 52.902 12.4742 52.902 13.6136V20.7622H50.2038V7.08917H52.902Z" fill="#EBEBEB"/>
<path d="M39.8534 7.05945C41.9176 7.05945 43.6328 7.73319 44.9991 9.08068C46.3654 10.4183 47.0486 12.1026 47.0486 14.1338C47.0486 16.1054 46.3556 17.7452 44.9696 19.0531C43.5837 20.351 41.839 21 39.7355 21C37.7008 21 36.0003 20.3411 34.634 19.0234C33.2677 17.6957 32.5846 16.041 32.5846 14.0594C32.5846 12.058 33.2726 10.3935 34.6487 9.06582C36.0347 7.72824 37.7696 7.05945 39.8534 7.05945ZM39.706 9.49682C38.4183 9.49682 37.3617 9.92286 36.536 10.7749C35.7103 11.627 35.2975 12.712 35.2975 14.0297C35.2975 15.3376 35.7202 16.4076 36.5655 17.2399C37.4108 18.0623 38.497 18.4735 39.8239 18.4735C41.1411 18.4735 42.2174 18.0573 43.0529 17.2251C43.8982 16.3829 44.3209 15.3079 44.3209 14C44.3209 12.7021 43.8835 11.627 43.0087 10.7749C42.1339 9.92286 41.033 9.49682 39.706 9.49682Z" fill="#EBEBEB"/>
<path d="M28.5004 0H31.4345L23.1041 20.8514H22.4701L15.732 3.96815L8.93495 20.8514H8.30095L0 0H2.96357L8.64007 14.3121L14.3461 0H17.1474L22.8829 14.3121L28.5004 0Z" fill="#EBEBEB"/>
</svg>
