<svg width="98" height="24" viewBox="0 0 98 24" fill="none" xmlns="http://www.w3.org/2000/svg">
<path d="M87.4095 22.6072V19.2781C88.2822 19.8896 89.1718 20.3878 90.0784 20.7728C90.9964 21.1465 91.767 21.3333 92.3903 21.3333C93.0363 21.3333 93.5916 21.1748 94.0562 20.8577C94.5209 20.5407 94.7532 20.1614 94.7532 19.7197C94.7532 19.2668 94.6002 18.8931 94.2942 18.5987C93.9995 18.293 93.3536 17.857 92.3563 17.2909C90.3617 16.1812 89.0528 15.2357 88.4295 14.4543C87.8175 13.6617 87.5115 12.8011 87.5115 11.8726C87.5115 10.6723 87.9762 9.69285 88.9055 8.93418C89.8461 8.17551 91.053 7.79617 92.5263 7.79617C94.0562 7.79617 95.6258 8.22646 97.235 9.08704V12.1444C95.3991 11.0347 93.8975 10.4798 92.7303 10.4798C92.1296 10.4798 91.6423 10.61 91.2683 10.8705C90.9057 11.1196 90.7244 11.4536 90.7244 11.8726C90.7244 12.235 90.8887 12.5803 91.2174 12.9087C91.5573 13.2371 92.1466 13.6334 92.9853 14.0977L94.0902 14.7261C96.6967 16.1982 98 17.8287 98 19.6178C98 20.8974 97.4957 21.9505 96.4871 22.7771C95.4898 23.5924 94.2035 24 92.6283 24C91.699 24 90.8717 23.9037 90.1464 23.7112C89.4211 23.5074 88.5088 23.1394 87.4095 22.6072Z" fill="#EBEBEB"/>
<path d="M81.6468 8.10191H85.3356L78.655 15.7622L86.6955 23.7282H82.5478L74.7112 15.7622L81.6468 8.10191ZM71.4813 0H74.5752V23.7282H71.4813V0Z" fill="#EBEBEB"/>
<path d="M60.9928 8.10191V11.6858L61.1628 11.414C62.6587 9.00212 64.1546 7.79617 65.6506 7.79617C66.8178 7.79617 68.0361 8.38499 69.3054 9.56263L67.6735 12.2802C66.5968 11.2611 65.5996 10.7516 64.6816 10.7516C63.6843 10.7516 62.8174 11.2272 62.0807 12.1783C61.3554 13.1295 60.9928 14.2562 60.9928 15.5584V23.7282H57.882V8.10191H60.9928Z" fill="#EBEBEB"/>
<path d="M45.9486 8.06793C48.3284 8.06793 50.306 8.83793 51.8813 10.3779C53.4565 11.9066 54.2441 13.8316 54.2441 16.1529C54.2441 18.4062 53.4452 20.2802 51.8473 21.7749C50.2493 23.2583 48.2378 24 45.8126 24C43.4667 24 41.5061 23.247 39.9309 21.741C38.3556 20.2236 37.568 18.3326 37.568 16.0679C37.568 13.7806 38.3613 11.8783 39.9479 10.3609C41.5458 8.83226 43.546 8.06793 45.9486 8.06793ZM45.7786 10.8535C44.294 10.8535 43.0757 11.3404 42.1238 12.3142C41.1718 13.288 40.6958 14.5279 40.6958 16.034C40.6958 17.5287 41.1831 18.7516 42.1578 19.7028C43.1324 20.6426 44.3846 21.1125 45.9146 21.1125C47.4332 21.1125 48.6741 20.6369 49.6374 19.6858C50.612 18.7233 51.0993 17.4947 51.0993 16C51.0993 14.5166 50.595 13.288 49.5864 12.3142C48.5778 11.3404 47.3085 10.8535 45.7786 10.8535Z" fill="#EBEBEB"/>
<path d="M32.8593 0H36.2422L26.6376 23.8301H25.9067L18.1381 4.53503L10.3015 23.8301H9.57051L0 0H3.41683L9.96149 16.3567L16.5402 0H19.77L26.3827 16.3567L32.8593 0Z" fill="#EBEBEB"/>
</svg>
