<svg width="347" height="452" viewBox="0 0 347 452" fill="none" xmlns="http://www.w3.org/2000/svg">
<path d="M346.025 419.292V429.007H339.532V419.292H346.025Z" fill="#EBEBEB" fill-opacity="0.7"/>
<path d="M328.353 419.292V429.007H321.86V419.292H328.353Z" fill="#EBEBEB" fill-opacity="0.7"/>
<path d="M310.68 419.292V429.007H304.188V419.292H310.68Z" fill="#EBEBEB" fill-opacity="0.7"/>
<path d="M297.597 384.094V387.999H287.394C291.527 391.774 293.594 395.745 293.594 399.911C293.594 403.653 292.78 406.615 291.153 408.796C289.558 410.976 287.638 412.571 285.392 413.58C283.179 414.556 280.218 415.533 276.507 416.509C272.797 417.453 270.47 418.348 269.526 419.194C268.583 420.04 268.111 421.017 268.111 422.123C268.111 423.425 268.713 424.466 269.917 425.247C271.154 426.029 274.945 426.598 281.292 426.956C287.671 427.314 291.967 428.535 294.18 430.618C296.393 432.7 297.499 435.467 297.499 438.917C297.499 442.985 295.726 446.174 292.178 448.485C288.631 450.828 283.7 452 277.386 452C271.105 452 266.256 450.893 262.838 448.68C259.421 446.5 257.712 443.603 257.712 439.991C257.712 434.132 262.074 430.504 270.796 429.104V428.909C265.946 427.77 263.522 425.638 263.522 422.514C263.522 419.357 266.516 416.916 272.504 415.191V414.996C268.566 413.824 265.572 411.888 263.522 409.186C261.504 406.452 260.495 403.426 260.495 400.106C260.495 395.387 262.139 391.547 265.426 388.585C268.713 385.591 273.432 384.094 279.583 384.094H297.597ZM276.996 412.018C280.283 412.018 283.098 410.846 285.441 408.503C287.817 406.127 289.005 403.295 289.005 400.008C289.005 396.721 287.817 393.922 285.441 391.612C283.098 389.268 280.25 388.097 276.898 388.097C273.578 388.097 270.779 389.236 268.501 391.514C266.223 393.792 265.084 396.559 265.084 399.813C265.084 403.198 266.239 406.078 268.55 408.454C270.861 410.83 273.676 412.018 276.996 412.018ZM277.679 447.997C282.333 447.997 286.027 447.2 288.761 445.605C291.527 444.01 292.91 441.911 292.91 439.307C292.91 434.035 288.143 431.399 278.607 431.399C267.736 431.399 262.301 434.165 262.301 439.698C262.301 445.231 267.427 447.997 277.679 447.997Z" fill="#EBEBEB" fill-opacity="0.7"/>
<path d="M217.877 384.094V391.905H218.072C221.815 386.111 226.745 383.215 232.864 383.215C237.941 383.215 241.993 384.842 245.02 388.097C248.046 391.351 249.56 395.859 249.56 401.619V429.007H244.776V403.426C244.776 393.076 240.707 387.901 232.571 387.901C226.615 387.901 221.717 391.107 217.877 397.519V429.007H213.092V384.094H217.877Z" fill="#EBEBEB" fill-opacity="0.7"/>
<path d="M199.863 360.807V369.009H195.03V360.807H199.863ZM199.863 384.094V429.007H195.03V384.094H199.863Z" fill="#EBEBEB" fill-opacity="0.7"/>
<path d="M172.866 369.204V384.094H185.461V387.999H172.866V414.703C172.866 418.999 173.208 421.83 173.891 423.197C174.607 424.532 176.495 425.199 179.554 425.199C181.897 425.199 184.631 424.466 187.756 423.002V427.591C184.599 429.12 181.507 429.885 178.48 429.885C175.518 429.885 173.045 429.039 171.06 427.347C169.074 425.654 168.082 423.311 168.082 420.317V387.999H155.975V384.094H168.082V373.402L171.353 369.204H172.866Z" fill="#EBEBEB" fill-opacity="0.7"/>
<path d="M150.849 360.807V369.009H146.016V360.807H150.849ZM150.849 384.094V429.007H146.016V384.094H150.849Z" fill="#EBEBEB" fill-opacity="0.7"/>
<path d="M140.499 388.536L137.717 393.027C133.974 389.61 130.964 387.901 128.685 387.901C124.194 387.901 119.394 392.197 114.284 400.789V429.007H109.5V384.094H114.284V395.908H114.479C119.849 387.446 125.089 383.215 130.199 383.215C133.128 383.215 136.561 384.989 140.499 388.536Z" fill="#EBEBEB" fill-opacity="0.7"/>
<path d="M51.6987 372.133L28.8029 429.69H27.3871L0 360.807H5.41885L27.973 417.388L50.8688 360.807H52.4798L75.278 417.388L97.8809 360.807H103.3L75.8638 429.69H74.5946L51.6987 372.133Z" fill="#EBEBEB" fill-opacity="0.7"/>
<path d="M254.93 299.315V306.931C254.93 312.854 252.766 317.46 248.437 320.747V317.232C249.836 315.279 250.536 312.545 250.536 309.03H248.437V299.315H254.93Z" fill="#EBEBEB" fill-opacity="0.7"/>
<path d="M236.33 284.914H200.937C200.839 285.695 200.79 286.476 200.79 287.257C200.79 292.269 202.58 296.517 206.16 299.999C209.74 303.481 213.971 305.222 218.853 305.222C224.548 305.222 230.114 302.993 235.549 298.534V303.953C230.407 307.924 224.646 309.909 218.267 309.909C211.791 309.909 206.437 307.663 202.206 303.172C197.975 298.681 195.859 292.969 195.859 286.037C195.859 279.463 197.812 274.028 201.718 269.731C205.623 265.403 210.538 263.239 216.461 263.239C222.026 263.239 226.729 265.191 230.569 269.097C234.41 272.97 236.33 278.242 236.33 284.914ZM201.571 281.057H230.667C228.975 272.303 224.239 267.925 216.461 267.925C212.783 267.925 209.594 269.081 206.892 271.391C204.224 273.67 202.45 276.892 201.571 281.057Z" fill="#EBEBEB" fill-opacity="0.7"/>
<path d="M184.827 240.831V249.033H179.994V240.831H184.827ZM184.827 264.117V309.03H179.994V264.117H184.827Z" fill="#EBEBEB" fill-opacity="0.7"/>
<path d="M173.013 264.117L153.729 309.909H150.751L130.345 264.117H135.227L152.118 301.952L168.326 264.117H173.013Z" fill="#EBEBEB" fill-opacity="0.7"/>
<path d="M105.301 263.239C111.81 263.239 117.229 265.468 121.558 269.927C125.919 274.386 128.1 279.951 128.1 286.623C128.1 293.262 125.919 298.811 121.558 303.27C117.229 307.696 111.81 309.909 105.301 309.909C98.7922 309.909 93.3408 307.696 88.9472 303.27C84.5861 298.811 82.4055 293.262 82.4055 286.623C82.4055 279.951 84.5861 274.386 88.9472 269.927C93.3408 265.468 98.7922 263.239 105.301 263.239ZM105.301 305.222C110.346 305.222 114.561 303.465 117.945 299.95C121.33 296.403 123.022 291.96 123.022 286.623C123.022 281.318 121.314 276.875 117.897 273.295C114.512 269.715 110.313 267.925 105.301 267.925C100.224 267.925 95.977 269.699 92.5597 273.246C89.175 276.794 87.4826 281.253 87.4826 286.623C87.4826 291.96 89.175 296.403 92.5597 299.95C95.977 303.465 100.224 305.222 105.301 305.222Z" fill="#EBEBEB" fill-opacity="0.7"/>
<path d="M39.1035 272.514L65.0749 240.831H70.3961V309.03H65.0749V248.544L39.1035 280.423L13.0833 248.544V309.03H7.81091V240.831H13.0833L39.1035 272.514Z" fill="#EBEBEB" fill-opacity="0.7"/>
<path d="M280.12 179.339V186.955C280.12 192.878 277.956 197.484 273.627 200.771V197.256C275.027 195.303 275.726 192.569 275.726 189.054H273.627V179.339H280.12Z" fill="#EBEBEB" fill-opacity="0.7"/>
<path d="M229.984 144.141V151.952H230.179C233.922 146.159 238.852 143.263 244.971 143.263C250.048 143.263 254.1 144.89 257.127 148.144C260.153 151.399 261.667 155.907 261.667 161.667V189.054H256.882V163.473C256.882 153.124 252.814 147.949 244.678 147.949C238.722 147.949 233.824 151.155 229.984 157.566V189.054H225.199V144.141H229.984Z" fill="#EBEBEB" fill-opacity="0.7"/>
<path d="M218.023 144.141V148.047H207.82C211.953 151.822 214.02 155.793 214.02 159.958C214.02 163.701 213.206 166.663 211.579 168.843C209.984 171.024 208.064 172.619 205.818 173.628C203.605 174.604 200.644 175.58 196.934 176.557C193.223 177.5 190.896 178.395 189.952 179.242C189.009 180.088 188.537 181.064 188.537 182.171C188.537 183.473 189.139 184.514 190.343 185.295C191.58 186.076 195.371 186.646 201.718 187.004C208.097 187.362 212.393 188.582 214.606 190.665C216.819 192.748 217.925 195.514 217.925 198.964C217.925 203.033 216.152 206.222 212.604 208.533C209.057 210.876 204.126 212.048 197.812 212.048C191.531 212.048 186.682 210.941 183.264 208.728C179.847 206.547 178.138 203.651 178.138 200.038C178.138 194.18 182.5 190.551 191.222 189.152V188.957C186.372 187.817 183.948 185.686 183.948 182.561C183.948 179.404 186.942 176.963 192.93 175.239V175.043C188.992 173.872 185.998 171.935 183.948 169.234C181.93 166.5 180.921 163.473 180.921 160.154C180.921 155.435 182.565 151.594 185.852 148.633C189.139 145.638 193.858 144.141 200.009 144.141H218.023ZM197.422 172.065C200.709 172.065 203.524 170.894 205.867 168.55C208.243 166.175 209.431 163.343 209.431 160.056C209.431 156.769 208.243 153.97 205.867 151.659C203.524 149.316 200.676 148.144 197.324 148.144C194.004 148.144 191.205 149.283 188.927 151.562C186.649 153.84 185.51 156.606 185.51 159.861C185.51 163.246 186.665 166.126 188.976 168.502C191.287 170.877 194.102 172.065 197.422 172.065ZM198.105 208.045C202.759 208.045 206.453 207.247 209.187 205.652C211.953 204.058 213.337 201.959 213.337 199.355C213.337 194.082 208.569 191.446 199.033 191.446C188.162 191.446 182.727 194.213 182.727 199.745C182.727 205.278 187.853 208.045 198.105 208.045Z" fill="#EBEBEB" fill-opacity="0.7"/>
<path d="M169.302 120.855V129.056H164.469V120.855H169.302ZM169.302 144.141V189.054H164.469V144.141H169.302Z" fill="#EBEBEB" fill-opacity="0.7"/>
<path d="M152.948 147.07V152.245C148.392 149.186 144.291 147.656 140.646 147.656C137.945 147.656 135.666 148.389 133.811 149.853C131.956 151.318 131.029 153.124 131.029 155.272C131.029 156.802 131.582 158.217 132.689 159.519C133.828 160.788 136.936 162.399 142.013 164.352C147.122 166.305 150.458 168.339 152.021 170.454C153.583 172.57 154.364 174.929 154.364 177.533C154.364 181.015 152.948 183.961 150.117 186.369C147.285 188.745 143.787 189.933 139.621 189.933C135.097 189.933 130.606 188.566 126.147 185.832V181.146C131.452 183.879 136.155 185.246 140.255 185.246C143.022 185.246 145.284 184.514 147.041 183.05C148.831 181.585 149.726 179.714 149.726 177.435C149.726 175.873 149.14 174.441 147.969 173.139C146.83 171.805 143.705 170.129 138.596 168.111C133.518 166.093 130.215 164.108 128.685 162.155C127.188 160.17 126.44 157.973 126.44 155.565C126.44 152.148 127.839 149.251 130.638 146.875C133.47 144.467 136.903 143.263 140.939 143.263C144.616 143.263 148.62 144.532 152.948 147.07Z" fill="#EBEBEB" fill-opacity="0.7"/>
<path d="M118.58 164.938H83.1866C83.089 165.719 83.0402 166.5 83.0402 167.281C83.0402 172.293 84.8302 176.54 88.4102 180.023C91.9902 183.505 96.2211 185.246 101.103 185.246C106.798 185.246 112.364 183.017 117.799 178.558V183.977C112.657 187.948 106.896 189.933 100.517 189.933C94.0406 189.933 88.6868 187.687 84.4559 183.196C80.225 178.705 78.1095 172.993 78.1095 166.061C78.1095 159.487 80.0622 154.051 83.9677 149.755C87.8732 145.427 92.7876 143.263 98.7109 143.263C104.276 143.263 108.979 145.215 112.819 149.121C116.66 152.994 118.58 158.266 118.58 164.938ZM83.8213 161.081H112.917C111.225 152.327 106.489 147.949 98.7109 147.949C95.0332 147.949 91.8437 149.105 89.1425 151.415C86.4737 153.693 84.7 156.915 83.8213 161.081Z" fill="#EBEBEB" fill-opacity="0.7"/>
<path d="M8.00623 120.855H31.8784C43.9529 120.855 53.1633 124.028 59.5097 130.374C65.8886 136.721 69.0781 144.922 69.0781 154.979C69.0781 164.84 65.9211 172.993 59.6073 179.437C53.326 185.848 44.3922 189.054 32.806 189.054H8.00623V120.855ZM13.2786 125.249V184.661H32.5131C41.3329 184.661 48.672 181.959 54.5302 176.557C60.4209 171.122 63.3663 163.929 63.3663 154.979C63.3663 146.224 60.4698 139.08 54.6766 133.548C48.8835 128.015 41.3818 125.249 32.1713 125.249H13.2786Z" fill="#EBEBEB" fill-opacity="0.7"/>
<path d="M295.547 59.3632V66.9789C295.547 72.9022 293.382 77.5074 289.054 80.7945V77.2796C290.453 75.3268 291.153 72.593 291.153 69.0781H289.054V59.3632H295.547Z" fill="#EBEBEB" fill-opacity="0.7"/>
<path d="M282.463 24.1651V28.0706H272.26C276.394 31.8459 278.46 35.8164 278.46 39.9823C278.46 43.725 277.647 46.6867 276.019 48.8672C274.425 51.0478 272.504 52.6425 270.259 53.6514C268.046 54.6278 265.084 55.6042 261.374 56.5805C257.664 57.5244 255.337 58.4194 254.393 59.2655C253.449 60.1117 252.977 61.0881 252.977 62.1947C252.977 63.4965 253.579 64.5379 254.783 65.319C256.02 66.1001 259.812 66.6697 266.158 67.0277C272.537 67.3857 276.833 68.6061 279.046 70.6891C281.259 72.772 282.366 75.5384 282.366 78.9882C282.366 83.0564 280.592 86.2459 277.045 88.5566C273.497 90.8999 268.566 92.0715 262.253 92.0715C255.971 92.0715 251.122 90.965 247.705 88.7519C244.287 86.5713 242.579 83.6748 242.579 80.0622C242.579 74.204 246.94 70.5751 255.662 69.1757V68.9804C250.813 67.8413 248.388 65.7096 248.388 62.5852C248.388 59.4283 251.382 56.9874 257.371 55.2624V55.0672C253.433 53.8955 250.439 51.9591 248.388 49.2578C246.37 46.5239 245.361 43.4972 245.361 40.1775C245.361 35.4584 247.005 31.618 250.292 28.6564C253.579 25.6622 258.298 24.1651 264.449 24.1651H282.463ZM261.862 52.0892C265.149 52.0892 267.964 50.9176 270.308 48.5743C272.683 46.1985 273.871 43.367 273.871 40.0799C273.871 36.7928 272.683 33.9939 270.308 31.6831C267.964 29.3399 265.117 28.1682 261.764 28.1682C258.445 28.1682 255.646 29.3073 253.368 31.5855C251.089 33.8637 249.95 36.6301 249.95 39.8846C249.95 43.2694 251.106 46.1497 253.416 48.5255C255.727 50.9013 258.542 52.0892 261.862 52.0892ZM262.545 88.0684C267.199 88.0684 270.893 87.271 273.627 85.6763C276.394 84.0816 277.777 81.9824 277.777 79.3787C277.777 74.1063 273.009 71.4702 263.473 71.4702C252.603 71.4702 247.168 74.2365 247.168 79.7693C247.168 85.302 252.294 88.0684 262.545 88.0684Z" fill="#EBEBEB" fill-opacity="0.7"/>
<path d="M202.743 24.1651V31.9761H202.938C206.681 26.1829 211.612 23.2864 217.73 23.2864C222.807 23.2864 226.859 24.9137 229.886 28.1682C232.913 31.4228 234.426 35.9303 234.426 41.6909V69.0781H229.642V43.4972C229.642 33.1477 225.574 27.9729 217.437 27.9729C211.481 27.9729 206.583 31.1787 202.743 37.5902V69.0781H197.959V24.1651H202.743Z" fill="#EBEBEB" fill-opacity="0.7"/>
<path d="M184.729 0.878723V9.08022H179.896V0.878723H184.729ZM184.729 24.1651V69.0781H179.896V24.1651H184.729Z" fill="#EBEBEB" fill-opacity="0.7"/>
<path d="M166.861 0.878723V69.0781H162.028V65.5631C157.928 68.4922 153.501 69.9568 148.75 69.9568C142.371 69.9568 136.985 67.7111 132.591 63.2198C128.23 58.696 126.049 53.147 126.049 46.5728C126.049 39.9009 128.197 34.3519 132.493 29.9257C136.822 25.4995 142.241 23.2864 148.75 23.2864C152.883 23.2864 157.309 24.4906 162.028 26.8989V0.878723H166.861ZM162.028 61.1695V32.1713C157.732 29.3724 153.371 27.9729 148.945 27.9729C143.77 27.9729 139.507 29.6979 136.155 33.1477C132.802 36.565 131.126 40.9424 131.126 46.2799C131.126 51.715 132.916 56.2388 136.496 59.8514C140.076 63.4639 144.551 65.2702 149.921 65.2702C154.087 65.2702 158.123 63.9033 162.028 61.1695Z" fill="#EBEBEB" fill-opacity="0.7"/>
<path d="M94.8542 23.2864C101.363 23.2864 106.782 25.5158 111.111 29.9745C115.472 34.4332 117.652 39.9985 117.652 46.6704C117.652 53.3097 115.472 58.8587 111.111 63.3175C106.782 67.7437 101.363 69.9568 94.8542 69.9568C88.3451 69.9568 82.8937 67.7437 78.5 63.3175C74.1389 58.8587 71.9584 53.3097 71.9584 46.6704C71.9584 39.9985 74.1389 34.4332 78.5 29.9745C82.8937 25.5158 88.3451 23.2864 94.8542 23.2864ZM94.8542 65.2702C99.8988 65.2702 104.113 63.5128 107.498 59.9978C110.883 56.4504 112.575 52.0079 112.575 46.6704C112.575 41.3655 110.867 36.923 107.449 33.343C104.065 29.763 99.8662 27.9729 94.8542 27.9729C89.7771 27.9729 85.5299 29.7467 82.1126 33.2942C78.7279 36.8416 77.0355 41.3004 77.0355 46.6704C77.0355 52.0079 78.7279 56.4504 82.1126 59.9978C85.5299 63.5128 89.7771 65.2702 94.8542 65.2702Z" fill="#EBEBEB" fill-opacity="0.7"/>
<path d="M64.7821 5.71176V11.4723C56.5155 7.07867 48.4116 4.88184 40.4705 4.88184C32.0086 4.88184 24.93 7.76213 19.2345 13.5227C13.539 19.2833 10.6912 26.4759 10.6912 35.1004C10.6912 43.8227 13.5553 50.999 19.2833 56.6294C25.0113 62.2598 32.3178 65.075 41.2028 65.075C48.6232 65.075 56.7107 62.7479 65.4655 58.0939V63.5616C57.3942 67.8251 49.3392 69.9568 41.3004 69.9568C30.9183 69.9568 22.2612 66.6371 15.329 59.9978C8.42933 53.326 4.97949 45.0269 4.97949 35.1004C4.97949 25.1089 8.51069 16.761 15.5731 10.0566C22.6355 3.3522 31.0485 0 40.8122 0C48.493 0 56.4829 1.90392 64.7821 5.71176Z" fill="#EBEBEB" fill-opacity="0.7"/>
</svg>
