<svg width="182" height="238" viewBox="0 0 182 238" fill="none" xmlns="http://www.w3.org/2000/svg">
<path d="M182 220.777V225.893H178.585V220.777H182Z" fill="#EBEBEB" fill-opacity="0.7"/>
<path d="M172.705 220.777V225.893H169.29V220.777H172.705Z" fill="#EBEBEB" fill-opacity="0.7"/>
<path d="M163.41 220.777V225.893H159.995V220.777H163.41Z" fill="#EBEBEB" fill-opacity="0.7"/>
<path d="M156.528 202.244V204.3H151.162C153.336 206.288 154.423 208.379 154.423 210.572C154.423 212.543 153.995 214.103 153.139 215.251C152.3 216.399 151.29 217.239 150.109 217.77C148.945 218.284 147.387 218.798 145.436 219.312C143.484 219.809 142.26 220.28 141.764 220.726C141.267 221.172 141.019 221.686 141.019 222.268C141.019 222.954 141.336 223.502 141.969 223.913C142.62 224.325 144.614 224.625 147.952 224.813C151.307 225.002 153.567 225.644 154.731 226.741C155.895 227.838 156.477 229.294 156.477 231.111C156.477 233.253 155.544 234.932 153.678 236.149C151.812 237.383 149.219 238 145.898 238C142.594 238 140.043 237.417 138.246 236.252C136.449 235.104 135.55 233.579 135.55 231.676C135.55 228.592 137.844 226.681 142.431 225.944V225.841C139.881 225.242 138.606 224.119 138.606 222.474C138.606 220.812 140.18 219.526 143.33 218.618V218.515C141.259 217.898 139.684 216.879 138.606 215.456C137.544 214.017 137.014 212.423 137.014 210.675C137.014 208.19 137.878 206.168 139.607 204.609C141.336 203.032 143.818 202.244 147.053 202.244H156.528ZM145.692 216.947C147.421 216.947 148.902 216.33 150.135 215.097C151.384 213.846 152.009 212.355 152.009 210.624C152.009 208.893 151.384 207.419 150.135 206.203C148.902 204.969 147.404 204.352 145.641 204.352C143.895 204.352 142.423 204.952 141.225 206.151C140.026 207.351 139.427 208.807 139.427 210.521C139.427 212.303 140.035 213.82 141.25 215.071C142.466 216.322 143.946 216.947 145.692 216.947ZM146.052 235.892C148.5 235.892 150.443 235.472 151.881 234.633C153.336 233.793 154.063 232.688 154.063 231.317C154.063 228.54 151.555 227.152 146.54 227.152C140.822 227.152 137.964 228.609 137.964 231.522C137.964 234.435 140.66 235.892 146.052 235.892Z" fill="#EBEBEB" fill-opacity="0.7"/>
<path d="M114.597 202.244V206.357H114.7C116.668 203.306 119.262 201.781 122.48 201.781C125.15 201.781 127.282 202.638 128.874 204.352C130.465 206.066 131.261 208.439 131.261 211.472V225.893H128.745V212.423C128.745 206.974 126.605 204.249 122.326 204.249C119.193 204.249 116.617 205.937 114.597 209.313V225.893H112.081V202.244H114.597Z" fill="#EBEBEB" fill-opacity="0.7"/>
<path d="M105.122 189.983V194.301H102.58V189.983H105.122ZM105.122 202.244V225.893H102.58V202.244H105.122Z" fill="#EBEBEB" fill-opacity="0.7"/>
<path d="M90.9228 194.404V202.244H97.5475V204.3H90.9228V218.361C90.9228 220.623 91.1025 222.114 91.462 222.834C91.8386 223.536 92.8314 223.888 94.4405 223.888C95.673 223.888 97.111 223.502 98.7543 222.731V225.147C97.0938 225.953 95.4676 226.355 93.8756 226.355C92.3179 226.355 91.0169 225.91 89.9727 225.019C88.9285 224.128 88.4064 222.894 88.4064 221.317V204.3H82.0385V202.244H88.4064V196.614L90.1268 194.404H90.9228Z" fill="#EBEBEB" fill-opacity="0.7"/>
<path d="M79.3424 189.983V194.301H76.8004V189.983H79.3424ZM79.3424 202.244V225.893H76.8004V202.244H79.3424Z" fill="#EBEBEB" fill-opacity="0.7"/>
<path d="M73.8988 204.583L72.4352 206.948C70.4666 205.149 68.8832 204.249 67.6849 204.249C65.3226 204.249 62.7977 206.511 60.1102 211.035V225.893H57.5938V202.244H60.1102V208.465H60.2129C63.0374 204.009 65.7934 201.781 68.4809 201.781C70.0216 201.781 71.8275 202.715 73.8988 204.583Z" fill="#EBEBEB" fill-opacity="0.7"/>
<path d="M27.1922 195.946L15.1495 226.253H14.4049L0 189.983H2.85017L14.713 219.775L26.7556 189.983H27.603L39.5942 219.775L51.4828 189.983H54.3329L39.9024 226.253H39.2348L27.1922 195.946Z" fill="#EBEBEB" fill-opacity="0.7"/>
<path d="M134.086 157.604V161.614C134.086 164.733 132.948 167.158 130.671 168.889V167.038C131.407 166.01 131.775 164.57 131.775 162.719H130.671V157.604H134.086Z" fill="#EBEBEB" fill-opacity="0.7"/>
<path d="M124.303 150.021H105.687C105.636 150.433 105.61 150.844 105.61 151.255C105.61 153.894 106.552 156.131 108.435 157.964C110.318 159.798 112.543 160.715 115.111 160.715C118.106 160.715 121.034 159.541 123.892 157.193V160.046C121.188 162.137 118.158 163.183 114.803 163.183C111.396 163.183 108.58 162 106.355 159.635C104.129 157.27 103.017 154.263 103.017 150.613C103.017 147.151 104.044 144.289 106.098 142.027C108.152 139.748 110.737 138.608 113.853 138.608C116.78 138.608 119.253 139.636 121.273 141.693C123.293 143.732 124.303 146.508 124.303 150.021ZM106.021 147.991H121.325C120.434 143.381 117.944 141.076 113.853 141.076C111.918 141.076 110.241 141.684 108.82 142.901C107.416 144.101 106.483 145.797 106.021 147.991Z" fill="#EBEBEB" fill-opacity="0.7"/>
<path d="M97.2137 126.809V131.128H94.6717V126.809H97.2137ZM97.2137 139.071V162.72H94.6717V139.071H97.2137Z" fill="#EBEBEB" fill-opacity="0.7"/>
<path d="M91.0001 139.071L80.8576 163.182H79.2913L68.5582 139.071H71.1259L80.0102 158.992L88.5351 139.071H91.0001Z" fill="#EBEBEB" fill-opacity="0.7"/>
<path d="M55.3856 138.608C58.8092 138.608 61.6594 139.782 63.9361 142.13C66.2299 144.478 67.3768 147.408 67.3768 150.921C67.3768 154.417 66.2299 157.339 63.9361 159.687C61.6594 162.017 58.8092 163.183 55.3856 163.183C51.962 163.183 49.0947 162.017 46.7837 159.687C44.4899 157.339 43.343 154.417 43.343 150.921C43.343 147.408 44.4899 144.478 46.7837 142.13C49.0947 139.782 51.962 138.608 55.3856 138.608ZM55.3856 160.715C58.0389 160.715 60.2557 159.789 62.036 157.939C63.8163 156.071 64.7064 153.732 64.7064 150.921C64.7064 148.128 63.8077 145.789 62.0103 143.904C60.23 142.019 58.0218 141.076 55.3856 141.076C52.7152 141.076 50.4812 142.01 48.6838 143.878C46.9036 145.746 46.0134 148.094 46.0134 150.921C46.0134 153.732 46.9036 156.071 48.6838 157.939C50.4812 159.789 52.7152 160.715 55.3856 160.715Z" fill="#EBEBEB" fill-opacity="0.7"/>
<path d="M20.5672 143.492L34.2275 126.809H37.0263V162.72H34.2275V130.871L20.5672 147.656L6.88128 130.871V162.72H4.10814V126.809H6.88128L20.5672 143.492Z" fill="#EBEBEB" fill-opacity="0.7"/>
<path d="M147.336 94.4309V98.4409C147.336 101.56 146.198 103.985 143.921 105.716V103.865C144.657 102.837 145.025 101.397 145.025 99.5463H143.921V94.4309H147.336Z" fill="#EBEBEB" fill-opacity="0.7"/>
<path d="M120.965 75.8974V80.0102H121.068C123.036 76.9599 125.63 75.4347 128.848 75.4347C131.518 75.4347 133.65 76.2915 135.242 78.0052C136.834 79.7189 137.63 82.0924 137.63 85.1256V99.5462H135.113V86.0767C135.113 80.6272 132.973 77.9024 128.694 77.9024C125.561 77.9024 122.985 79.5904 120.965 82.9663V99.5462H118.449V75.8974H120.965Z" fill="#EBEBEB" fill-opacity="0.7"/>
<path d="M114.674 75.8976V77.954H109.308C111.482 79.9419 112.569 82.0326 112.569 84.2261C112.569 86.1968 112.141 87.7563 111.285 88.9045C110.446 90.0526 109.436 90.8923 108.255 91.4236C107.091 91.9377 105.533 92.4518 103.582 92.9659C101.63 93.4629 100.406 93.9341 99.9097 94.3797C99.4133 94.8252 99.165 95.3393 99.165 95.922C99.165 96.6075 99.4817 97.1558 100.115 97.5671C100.766 97.9784 102.76 98.2783 106.098 98.4668C109.453 98.6553 111.713 99.298 112.877 100.395C114.041 101.491 114.623 102.948 114.623 104.765C114.623 106.907 113.69 108.586 111.824 109.803C109.958 111.037 107.365 111.654 104.044 111.654C100.74 111.654 98.1893 111.071 96.3919 109.906C94.5945 108.757 93.6958 107.232 93.6958 105.33C93.6958 102.245 95.9896 100.335 100.577 99.5978V99.495C98.0267 98.8952 96.7514 97.7728 96.7514 96.1276C96.7514 94.4654 98.3263 93.1801 101.476 92.2718V92.169C99.4047 91.5521 97.8298 90.5325 96.7514 89.1101C95.6901 87.6706 95.1594 86.0769 95.1594 84.3289C95.1594 81.8441 96.0239 79.8219 97.7528 78.2625C99.4817 76.6859 101.964 75.8976 105.199 75.8976H114.674ZM103.838 90.601C105.567 90.601 107.048 89.9841 108.28 88.7502C109.53 87.4992 110.155 86.0083 110.155 84.2775C110.155 82.5467 109.53 81.0729 108.28 79.8562C107.048 78.6223 105.55 78.0054 103.787 78.0054C102.041 78.0054 100.569 78.6052 99.3705 79.8048C98.1722 81.0044 97.5731 82.461 97.5731 84.1747C97.5731 85.9569 98.1808 87.4735 99.3961 88.7245C100.612 89.9755 102.092 90.601 103.838 90.601ZM104.198 109.546C106.646 109.546 108.589 109.126 110.026 108.286C111.482 107.447 112.209 106.341 112.209 104.97C112.209 102.194 109.701 100.806 104.686 100.806C98.9682 100.806 96.1095 102.263 96.1095 105.176C96.1095 108.089 98.8056 109.546 104.198 109.546Z" fill="#EBEBEB" fill-opacity="0.7"/>
<path d="M89.0486 63.636V67.9545H86.5066V63.636H89.0486ZM89.0486 75.8974V99.5463H86.5066V75.8974H89.0486Z" fill="#EBEBEB" fill-opacity="0.7"/>
<path d="M80.4468 77.4397V80.1645C78.0503 78.5536 75.8934 77.7482 73.9762 77.7482C72.5554 77.7482 71.3571 78.1337 70.3814 78.9049C69.4056 79.6761 68.9178 80.6272 68.9178 81.7582C68.9178 82.5636 69.2088 83.3091 69.7908 83.9946C70.3899 84.6629 72.0247 85.5112 74.6951 86.5394C77.3827 87.5676 79.1373 88.6386 79.9589 89.7525C80.7806 90.8664 81.1915 92.1089 81.1915 93.4798C81.1915 95.3134 80.4468 96.8643 78.9575 98.1325C77.4683 99.3834 75.6281 100.009 73.4369 100.009C71.0575 100.009 68.6952 99.2892 66.35 97.8497V95.382C69.1403 96.8215 71.6139 97.5412 73.7707 97.5412C75.2258 97.5412 76.4155 97.1557 77.3399 96.3845C78.2814 95.6133 78.7521 94.628 78.7521 93.4284C78.7521 92.6058 78.444 91.8518 77.8277 91.1663C77.2286 90.4637 75.5853 89.5812 72.8977 88.5187C70.2273 87.4562 68.4898 86.4108 67.6853 85.3826C66.8978 84.3373 66.5041 83.1806 66.5041 81.9124C66.5041 80.1131 67.2402 78.5879 68.7123 77.3369C70.2016 76.0688 72.0076 75.4347 74.1302 75.4347C76.0646 75.4347 78.1701 76.103 80.4468 77.4397Z" fill="#EBEBEB" fill-opacity="0.7"/>
<path d="M62.37 86.8478H43.7541C43.7027 87.2591 43.677 87.6704 43.677 88.0817C43.677 90.7208 44.6185 92.9571 46.5015 94.7908C48.3845 96.6244 50.6099 97.5412 53.1776 97.5412C56.1733 97.5412 59.1005 96.3674 61.9592 94.0196V96.8729C59.2545 98.9636 56.2246 100.009 52.8695 100.009C49.463 100.009 46.647 98.8265 44.4217 96.4616C42.1963 94.0967 41.0836 91.0892 41.0836 87.4391C41.0836 83.9774 42.1107 81.1156 44.1649 78.8535C46.2191 76.5743 48.8039 75.4347 51.9194 75.4347C54.8466 75.4347 57.3202 76.4629 59.3401 78.5193C61.3601 80.5586 62.37 83.3348 62.37 86.8478ZM44.0879 84.8171H59.3915C58.5013 80.2073 56.0106 77.9024 51.9194 77.9024C49.9851 77.9024 48.3075 78.5108 46.8867 79.7275C45.483 80.9271 44.5501 82.6236 44.0879 84.8171Z" fill="#EBEBEB" fill-opacity="0.7"/>
<path d="M4.21106 63.636H16.7672C23.118 63.636 27.9625 65.3068 31.3005 68.6485C34.6557 71.9902 36.3332 76.3087 36.3332 81.604C36.3332 86.7964 34.6728 91.0892 31.3519 94.4823C28.0481 97.8583 23.3491 99.5463 17.2551 99.5463H4.21106V63.636ZM6.9842 65.9495V97.2328H17.101C21.74 97.2328 25.6002 95.8104 28.6814 92.9657C31.7798 90.1039 33.329 86.3166 33.329 81.604C33.329 76.9942 31.8055 73.2326 28.7585 70.3194C25.7114 67.4061 21.7657 65.9495 16.9213 65.9495H6.9842Z" fill="#EBEBEB" fill-opacity="0.7"/>
<path d="M155.45 31.2578V35.2678C155.45 38.3867 154.312 40.8116 152.035 42.5424V40.6917C152.771 39.6634 153.139 38.2239 153.139 36.3732H152.035V31.2578H155.45Z" fill="#EBEBEB" fill-opacity="0.7"/>
<path d="M148.568 12.7241V14.7805H143.201C145.375 16.7684 146.462 18.8591 146.462 21.0526C146.462 23.0234 146.034 24.5828 145.179 25.731C144.34 26.8792 143.33 27.7189 142.149 28.2501C140.985 28.7642 139.427 29.2783 137.475 29.7924C135.524 30.2894 134.3 30.7607 133.804 31.2062C133.307 31.6518 133.059 32.1659 133.059 32.7485C133.059 33.434 133.376 33.9824 134.009 34.3937C134.659 34.805 136.654 35.1049 139.992 35.2934C143.347 35.4819 145.606 36.1245 146.77 37.2213C147.935 38.318 148.517 39.7746 148.517 41.5911C148.517 43.7333 147.584 45.4127 145.718 46.6294C143.852 47.8632 141.258 48.4802 137.938 48.4802C134.634 48.4802 132.083 47.8975 130.286 46.7322C128.488 45.584 127.59 44.0589 127.59 42.1567C127.59 39.072 129.883 37.1613 134.471 36.4244V36.3216C131.921 35.7218 130.645 34.5993 130.645 32.9542C130.645 31.2919 132.22 30.0066 135.37 29.0984V28.9956C133.299 28.3786 131.724 27.359 130.645 25.9366C129.584 24.4971 129.053 22.9034 129.053 21.1555C129.053 18.6706 129.918 16.6485 131.647 15.089C133.376 13.5124 135.858 12.7241 139.093 12.7241H148.568ZM137.732 27.4275C139.461 27.4275 140.942 26.8106 142.174 25.5768C143.424 24.3258 144.049 22.8349 144.049 21.104C144.049 19.3732 143.424 17.8995 142.174 16.6827C140.942 15.4489 139.444 14.832 137.681 14.832C135.935 14.832 134.463 15.4317 133.264 16.6313C132.066 17.8309 131.467 19.2875 131.467 21.0012C131.467 22.7835 132.075 24.3001 133.29 25.5511C134.505 26.802 135.986 27.4275 137.732 27.4275ZM138.092 46.3723C140.539 46.3723 142.482 45.9525 143.92 45.1128C145.375 44.2731 146.103 43.1677 146.103 41.7968C146.103 39.0206 143.595 37.6325 138.579 37.6325C132.862 37.6325 130.003 39.0892 130.003 42.0024C130.003 44.9157 132.699 46.3723 138.092 46.3723Z" fill="#EBEBEB" fill-opacity="0.7"/>
<path d="M106.637 12.724V16.8369H106.74C108.708 13.7865 111.302 12.2614 114.52 12.2614C117.191 12.2614 119.322 13.1182 120.914 14.8319C122.506 16.5456 123.302 18.919 123.302 21.9522V36.3729H120.785V22.9033C120.785 17.4538 118.646 14.7291 114.366 14.7291C111.233 14.7291 108.657 16.417 106.637 19.793V36.3729H104.121V12.724H106.637Z" fill="#EBEBEB" fill-opacity="0.7"/>
<path d="M97.1625 0.462524V4.78101H94.6205V0.462524H97.1625ZM97.1625 12.7239V36.3728H94.6205V12.7239H97.1625Z" fill="#EBEBEB" fill-opacity="0.7"/>
<path d="M87.7644 0.462524V36.3728H85.2224V34.522C83.0655 36.0643 80.7374 36.8355 78.2382 36.8355C74.883 36.8355 72.05 35.6531 69.739 33.2882C67.4452 30.9061 66.2983 27.9843 66.2983 24.5227C66.2983 21.0096 67.4281 18.0878 69.6877 15.7572C71.9644 13.4266 74.8145 12.2612 78.2382 12.2612C80.4122 12.2612 82.7402 12.8953 85.2224 14.1634V0.462524H87.7644ZM85.2224 32.2085V16.9396C82.9628 15.4658 80.6689 14.729 78.3409 14.729C75.6191 14.729 73.3766 15.6372 71.6135 17.4537C69.8503 19.2531 68.9687 21.558 68.9687 24.3684C68.9687 27.2303 69.9102 29.6123 71.7932 31.5145C73.6762 33.4167 76.0299 34.3678 78.8544 34.3678C81.0455 34.3678 83.1682 33.648 85.2224 32.2085Z" fill="#EBEBEB" fill-opacity="0.7"/>
<path d="M49.8905 12.2614C53.3141 12.2614 56.1643 13.4352 58.441 15.783C60.7348 18.1307 61.8817 21.0611 61.8817 24.5742C61.8817 28.0701 60.7348 30.9919 58.441 33.3397C56.1643 35.6703 53.3141 36.8356 49.8905 36.8356C46.4668 36.8356 43.5995 35.6703 41.2886 33.3397C38.9948 30.9919 37.8479 28.0701 37.8479 24.5742C37.8479 21.0611 38.9948 18.1307 41.2886 15.783C43.5995 13.4352 46.4668 12.2614 49.8905 12.2614ZM49.8905 34.3679C52.5438 34.3679 54.7606 33.4425 56.5409 31.5917C58.3211 29.7238 59.2113 27.3846 59.2113 24.5742C59.2113 21.7809 58.3126 19.4417 56.5152 17.5566C54.7349 15.6716 52.5267 14.7291 49.8905 14.7291C47.22 14.7291 44.9861 15.663 43.1887 17.5309C41.4084 19.3989 40.5183 21.7466 40.5183 24.5742C40.5183 27.3846 41.4084 29.7238 43.1887 31.5917C44.9861 33.4425 47.22 34.3679 49.8905 34.3679Z" fill="#EBEBEB" fill-opacity="0.7"/>
<path d="M34.0739 3.00752V6.04074C29.7259 3.72727 25.4635 2.57053 21.2867 2.57053C16.8359 2.57053 13.1128 4.08714 10.1171 7.12036C7.12141 10.1536 5.62357 13.9408 5.62357 18.4821C5.62357 23.0748 7.12997 26.8534 10.1428 29.8181C13.1555 32.7828 16.9986 34.2651 21.6718 34.2651C25.5748 34.2651 29.8286 33.0399 34.4334 30.5893V33.4683C30.1881 35.7132 25.9513 36.8357 21.7232 36.8357C16.2625 36.8357 11.7091 35.0877 8.0629 31.5918C4.43386 28.0787 2.61934 23.7088 2.61934 18.4821C2.61934 13.2211 4.47666 8.82548 8.19129 5.29529C11.9059 1.7651 16.331 0 21.4664 0C25.5063 0 29.7088 1.00251 34.0739 3.00752Z" fill="#EBEBEB" fill-opacity="0.7"/>
</svg>
